<svg xmlns="http://www.w3.org/2000/svg" xmlns:xlink="http://www.w3.org/1999/xlink" width="500" zoomAndPan="magnify" viewBox="0 0 375 374.999991" height="500" preserveAspectRatio="xMidYMid meet" version="1.0"><defs><g/><clipPath id="9b2ef136bf"><path d="M 108 171 L 274 171 L 274 178.808594 L 108 178.808594 Z M 108 171 " clip-rule="nonzero"/></clipPath><clipPath id="b6b03a5f0d"><path d="M 76.765625 146 L 298 146 L 298 178.808594 L 76.765625 178.808594 Z M 76.765625 146 " clip-rule="nonzero"/></clipPath></defs><g clip-path="url(#9b2ef136bf)"><path fill="#ed2323" d="M 116.078125 177.390625 C 122.089844 177.769531 128.085938 178.132812 134.082031 178.445312 C 134.59375 178.210938 135.355469 178.058594 136.488281 177.988281 C 167.320312 176.410156 201.890625 175.527344 273.5 171.800781 C 261.054688 170.96875 202.21875 173.046875 165.40625 174.203125 C 147.726562 174.757812 130.039062 175.496094 112.378906 176.566406 C 112.054688 176.574219 110.285156 176.742188 108.324219 177.003906 C 110.921875 177.089844 113.515625 177.222656 116.078125 177.390625 Z M 116.078125 177.390625 " fill-opacity="1" fill-rule="nonzero"/></g><g clip-path="url(#b6b03a5f0d)"><path fill="#ffffff" d="M 297.613281 178.164062 C 297.230469 177.125 296.832031 176.109375 296.242188 175.1875 C 296.84375 174.308594 297.089844 173.328125 297.003906 172.121094 C 296.96875 171.78125 296.910156 171.449219 296.824219 171.121094 C 296.664062 170.429688 296.453125 169.484375 296.773438 169.15625 L 296.804688 169.117188 C 296.9375 168.980469 297.03125 168.816406 297.078125 168.628906 C 297.089844 168.554688 297.101562 168.480469 297.109375 168.414062 L 297.109375 168.324219 C 297.089844 166.167969 296.59375 164.769531 294.113281 163.960938 C 292.550781 163.453125 290.714844 163.445312 289.09375 163.4375 L 288.429688 163.4375 C 286.058594 163.410156 283.691406 163.292969 281.4375 163.09375 C 279.90625 162.839844 278.363281 162.304688 276.867188 161.789062 C 276.378906 161.613281 275.898438 161.449219 275.414062 161.289062 C 273.902344 160.800781 272.394531 160.296875 270.882812 159.800781 C 268.34375 158.964844 265.714844 158.097656 263.117188 157.261719 C 253.820312 154.269531 243.878906 151.203125 233.683594 149.414062 C 215.203125 145.808594 197.265625 145.058594 180.386719 147.1875 C 163.828125 149.273438 149.058594 157.070312 134.777344 164.597656 L 132.015625 166.054688 C 122.84375 166.097656 110.902344 166.566406 99.632812 169.832031 C 92.832031 171.800781 85.835938 174.511719 78.820312 177.898438 L 76.929688 178.808594 L 82.429688 178.796875 L 82.515625 178.761719 C 87.128906 176.765625 94.410156 173.9375 99.414062 172.386719 C 110.460938 168.960938 122.242188 168.46875 132.304688 168.433594 C 132.5 168.4375 132.683594 168.390625 132.855469 168.304688 L 132.890625 168.28125 C 133.921875 167.742188 134.953125 167.203125 135.976562 166.660156 C 149.828125 159.355469 164.144531 151.800781 180.089844 149.617188 C 196.546875 147.363281 214.394531 148.074219 233.140625 151.734375 C 243.144531 153.488281 253.109375 156.558594 262.453125 159.546875 C 265.296875 160.457031 268.171875 161.402344 270.957031 162.324219 L 274.316406 163.429688 L 275.886719 163.976562 C 277.546875 164.550781 279.273438 165.15625 281.015625 165.425781 L 281.101562 165.441406 L 281.234375 165.460938 C 283.597656 165.679688 286.195312 165.796875 289.183594 165.824219 C 290.636719 165.839844 292.078125 165.984375 293.503906 166.261719 C 294.082031 166.367188 294.371094 166.574219 294.523438 166.878906 C 291.210938 166.890625 287.992188 167.59375 285.25 168.289062 L 284.480469 168.480469 C 282.414062 168.992188 280.066406 169.574219 278.230469 170.6875 C 277.875 170.90625 277.667969 171.257812 277.660156 171.617188 C 277.648438 171.742188 277.652344 171.871094 277.679688 171.996094 C 278.515625 176.0625 282.976562 176.371094 284.441406 176.46875 C 287.933594 176.707031 291.191406 176.640625 294.128906 176.269531 C 294.683594 177.019531 295.054688 177.847656 295.320312 178.511719 L 295.441406 178.808594 L 297.851562 178.808594 Z M 293.863281 173.917969 C 291.550781 174.203125 289.144531 174.203125 286.671875 174.167969 L 286.136719 174.167969 C 283.957031 174.15625 281.28125 174.140625 280.296875 172.300781 C 281.503906 171.742188 282.882812 171.386719 284.214844 171.035156 L 285.269531 170.753906 C 288.792969 169.78125 291.6875 169.308594 294.308594 169.277344 C 294.273438 169.832031 294.371094 170.429688 294.464844 171.019531 C 294.699219 172.472656 294.777344 173.40625 293.863281 173.917969 Z M 293.863281 173.917969 " fill-opacity="1" fill-rule="nonzero"/></g><path fill="#ffffff" d="M 258.09375 166.234375 C 258.09375 166.234375 256.132812 166.984375 255.277344 167.148438 C 253.839844 167.421875 248.910156 167.976562 248.910156 167.976562 C 253.867188 168.402344 274.898438 167.097656 273.976562 167.097656 C 269.007812 167.097656 261.964844 166.558594 258.09375 166.234375 Z M 258.09375 166.234375 " fill-opacity="1" fill-rule="nonzero"/><path fill="#ffffff" d="M 259.394531 161.839844 C 260.175781 161.046875 259.414062 160.601562 259.199219 160.527344 C 238.660156 153.648438 216.355469 149.882812 194.574219 150.234375 C 192.765625 150.269531 190.957031 150.320312 189.160156 150.40625 C 175.714844 151.058594 162.589844 155.21875 150.574219 161.351562 L 150.554688 161.351562 C 150.324219 161.460938 150.089844 161.582031 149.871094 161.703125 C 145.824219 163.808594 141.902344 166.125 138.097656 168.648438 C 137.089844 169.382812 137.300781 169.933594 138.414062 170.078125 C 139.667969 170.179688 141.628906 170.132812 143.191406 170.144531 C 145.15625 170.171875 152.980469 170.03125 161.078125 169.867188 C 168.113281 169.722656 175.351562 169.554688 179.113281 169.4375 C 191.949219 169.046875 204.757812 168.640625 217.601562 168.433594 C 224.558594 168.324219 231.515625 168.175781 238.460938 167.804688 C 242.726562 167.582031 247.472656 167.601562 251.574219 166.269531 C 254.535156 165.359375 257.199219 164.0625 259.394531 161.839844 Z M 140.449219 168.820312 C 142.433594 167.554688 144.453125 166.339844 146.511719 165.167969 C 146.09375 166.242188 146.09375 167.441406 146.71875 168.707031 C 144.65625 168.773438 142.53125 168.90625 140.449219 168.820312 Z M 189.53125 167.574219 C 182.003906 167.832031 174.476562 168.15625 166.941406 168.335938 L 161.050781 168.460938 L 156.414062 168.546875 C 157.546875 166.507812 157.492188 164.871094 156.917969 163.675781 C 156.246094 162.265625 154.875 161.46875 153.902344 161.308594 C 164.972656 156.015625 176.902344 152.488281 189.148438 151.839844 C 190.957031 151.746094 192.777344 151.679688 194.59375 151.648438 C 192.253906 156.664062 190.863281 162.230469 189.53125 167.574219 Z M 196.898438 167.605469 L 195.441406 167.621094 C 195.828125 163.523438 197.421875 157.160156 198.359375 153.15625 C 198.359375 153.15625 197.269531 163.636719 196.898438 167.605469 Z M 231.917969 166.660156 C 222.953125 166.976562 213.980469 167.0625 205.015625 167.167969 L 202.519531 167.214844 C 202.578125 162.039062 203.015625 156.871094 203.320312 151.707031 C 211.59375 151.988281 219.8125 152.820312 227.976562 154.199219 C 227.992188 154.21875 228.011719 154.234375 228.03125 154.25 C 232.269531 157.902344 236.199219 162.011719 239.824219 166.300781 C 237.1875 166.460938 234.550781 166.566406 231.917969 166.660156 Z M 243.769531 166.023438 C 243.046875 166.082031 242.316406 166.128906 241.585938 166.183594 C 238.214844 162.132812 234.570312 158.207031 230.648438 154.65625 C 239.804688 156.328125 248.804688 158.617188 257.648438 161.523438 C 255.789062 163.144531 253.613281 164.148438 251.203125 164.890625 C 248.789062 165.632812 246.234375 165.8125 243.769531 166.023438 Z M 243.769531 166.023438 " fill-opacity="1" fill-rule="nonzero"/><g fill="#ffffff" fill-opacity="1"><g transform="translate(131.906644, 208.156436)"><g><path d="M 25.148438 -20.121094 L 25.148438 -11.5 L 7.578125 -11.5 L 7.578125 -20.121094 L 4.15625 -20.121094 L 4.15625 0 L 7.578125 0 L 7.578125 -8.617188 L 25.148438 -8.617188 L 25.148438 0 L 28.570312 0 L 28.570312 -20.121094 Z M 25.148438 -20.121094 "/></g></g></g><g fill="#ffffff" fill-opacity="1"><g transform="translate(167.580353, 208.156436)"><g><path d="M 4.15625 0 L 7.578125 0 L 7.578125 -20.121094 L 4.15625 -20.121094 Z M 4.15625 0 "/></g></g></g><g fill="#ffffff" fill-opacity="1"><g transform="translate(182.266001, 208.156436)"><g><path d="M 27.964844 -14.25 L 27.964844 -14.621094 C 27.964844 -18.242188 25.617188 -20.121094 21.695312 -20.121094 L 4.15625 -20.121094 L 4.15625 0 L 7.8125 0 L 7.8125 -7.78125 L 20.289062 -7.78125 C 23.675781 -7.78125 23.675781 -5.699219 23.675781 -4.125 L 23.675781 -1.878906 C 23.675781 -1.273438 23.707031 -0.605469 23.808594 0 L 27.730469 0 C 27.628906 -0.605469 27.5625 -1.273438 27.5625 -2.011719 L 27.5625 -4.394531 C 27.5625 -6.472656 26.726562 -8.28125 24.78125 -9.355469 C 26.691406 -9.960938 27.964844 -11.335938 27.964844 -14.25 Z M 7.8125 -11.367188 L 7.8125 -16.765625 L 21.695312 -16.765625 C 23.976562 -16.765625 24.480469 -15.59375 24.480469 -14.621094 L 24.480469 -14.25 C 24.480469 -12.675781 23.605469 -11.367188 21.695312 -11.367188 Z M 7.8125 -11.367188 "/></g></g></g><g fill="#ffffff" fill-opacity="1"><g transform="translate(215.693384, 208.156436)"><g><path d="M 25.351562 -17.066406 L 25.351562 -20.121094 L 4.15625 -20.121094 L 4.15625 0 L 25.351562 0 L 25.351562 -3.050781 L 7.578125 -3.050781 L 7.578125 -8.28125 L 23.273438 -8.28125 L 23.273438 -11.335938 L 7.578125 -11.335938 L 7.578125 -17.066406 Z M 25.351562 -17.066406 "/></g></g></g><g fill="#ffffff" fill-opacity="1"><g transform="translate(90.902741, 241.906434)"><g><path d="M 12.675781 -20.890625 L 12.675781 -23.941406 L 9.222656 -23.941406 C 5.769531 -23.941406 3.6875 -21.898438 3.6875 -18.410156 L 3.6875 1.308594 C 3.6875 4.796875 5.769531 6.839844 9.222656 6.839844 L 12.675781 6.839844 L 12.675781 3.789062 L 10.460938 3.789062 C 7.878906 3.789062 7.109375 2.882812 7.109375 1.105469 L 7.109375 -18.207031 C 7.109375 -19.984375 7.878906 -20.890625 10.460938 -20.890625 Z M 12.675781 -20.890625 "/></g></g></g><g fill="#ffffff" fill-opacity="1"><g transform="translate(107.197689, 241.906434)"><g><path d="M 20.992188 -20.121094 L 12.808594 -10.695312 L 4.59375 -20.121094 L -0.0664062 -20.121094 L 10.496094 -8.046875 L 10.527344 -8.046875 L 11.066406 -7.410156 L 11.066406 0 L 14.484375 0 L 14.484375 -7.378906 L 25.652344 -20.121094 Z M 20.992188 -20.121094 "/></g></g></g><g fill="#ffffff" fill-opacity="1"><g transform="translate(135.76361, 241.906434)"><g><path d="M 0.671875 -20.890625 L 2.882812 -20.890625 C 5.5 -20.890625 6.238281 -19.984375 6.238281 -18.207031 L 6.238281 1.105469 C 6.238281 2.882812 5.5 3.789062 2.882812 3.789062 L 0.671875 3.789062 L 0.671875 6.839844 L 4.125 6.839844 C 7.613281 6.839844 9.65625 4.796875 9.65625 1.308594 L 9.65625 -18.410156 C 9.65625 -21.898438 7.613281 -23.941406 4.125 -23.941406 L 0.671875 -23.941406 Z M 0.671875 -20.890625 "/></g></g></g><g fill="#ffffff" fill-opacity="1"><g transform="translate(152.05856, 241.906434)"><g><path d="M 16.296875 0.335938 C 26.824219 0.335938 29.910156 -4.695312 29.910156 -9.457031 L 29.910156 -10.929688 C 29.910156 -15.960938 26.492188 -20.554688 16.296875 -20.554688 C 5.933594 -20.554688 2.683594 -15.761719 2.683594 -10.796875 L 2.683594 -9.320312 C 2.683594 -4.460938 5.933594 0.335938 16.296875 0.335938 Z M 16.296875 -3.019531 C 9.019531 -3.019531 6.171875 -5.769531 6.171875 -9.320312 L 6.171875 -10.796875 C 6.171875 -14.453125 9.019531 -17.203125 16.296875 -17.203125 C 23.339844 -17.203125 26.421875 -14.183594 26.421875 -10.460938 L 26.421875 -8.988281 C 26.421875 -5.601562 23.773438 -3.019531 16.296875 -3.019531 Z M 16.296875 -3.019531 "/></g></g></g><g fill="#ffffff" fill-opacity="1"><g transform="translate(187.598156, 241.906434)"><g><path d="M 15.15625 0.335938 C 25.6875 0.335938 27.597656 -4.695312 27.597656 -9.792969 L 27.597656 -20.050781 L 23.875 -20.050781 L 23.707031 -9.320312 C 23.707031 -5.601562 21.460938 -3.253906 15.15625 -3.253906 C 9.054688 -3.253906 6.605469 -5.769531 6.605469 -9.320312 L 6.605469 -20.050781 L 2.882812 -20.050781 L 2.714844 -9.320312 C 2.714844 -4.460938 4.796875 0.335938 15.15625 0.335938 Z M 15.15625 0.335938 "/></g></g></g><g fill="#ffffff" fill-opacity="1"><g transform="translate(221.059065, 241.906434)"><g><path d="M 27.964844 -14.25 L 27.964844 -14.621094 C 27.964844 -18.242188 25.617188 -20.121094 21.695312 -20.121094 L 4.15625 -20.121094 L 4.15625 0 L 7.8125 0 L 7.8125 -7.78125 L 20.289062 -7.78125 C 23.675781 -7.78125 23.675781 -5.699219 23.675781 -4.125 L 23.675781 -1.878906 C 23.675781 -1.273438 23.707031 -0.605469 23.808594 0 L 27.730469 0 C 27.628906 -0.605469 27.5625 -1.273438 27.5625 -2.011719 L 27.5625 -4.394531 C 27.5625 -6.472656 26.726562 -8.28125 24.78125 -9.355469 C 26.691406 -9.960938 27.964844 -11.335938 27.964844 -14.25 Z M 7.8125 -11.367188 L 7.8125 -16.765625 L 21.695312 -16.765625 C 23.976562 -16.765625 24.480469 -15.59375 24.480469 -14.621094 L 24.480469 -14.25 C 24.480469 -12.675781 23.605469 -11.367188 21.695312 -11.367188 Z M 7.8125 -11.367188 "/></g></g></g><g fill="#ffffff" fill-opacity="1"><g transform="translate(254.486454, 241.906434)"><g><path d="M 23.507812 -13.613281 L 26.925781 -13.613281 C 26.925781 -18.644531 22.367188 -20.421875 15.15625 -20.421875 C 6.605469 -20.421875 2.714844 -18.441406 2.714844 -14.753906 L 2.714844 -14.484375 C 2.714844 -9.960938 6.371094 -9.355469 14.417969 -8.515625 C 23.171875 -7.710938 23.203125 -6.503906 23.203125 -5.96875 L 23.203125 -5.566406 C 23.203125 -3.21875 18.175781 -3.019531 14.453125 -3.019531 C 8.753906 -3.019531 6.101562 -4.527344 6.101562 -6.941406 L 2.683594 -6.941406 C 2.683594 -2.449219 6.574219 0.335938 14.453125 0.335938 C 22.871094 0.335938 26.726562 -1.242188 26.726562 -5.667969 L 26.726562 -6.003906 C 26.726562 -10.5625 22.230469 -11.199219 14.621094 -11.902344 C 6.269531 -12.675781 6.238281 -13.714844 6.238281 -14.519531 L 6.238281 -14.820312 C 6.238281 -16.429688 10.394531 -17.066406 15.15625 -17.066406 C 19.917969 -17.066406 23.507812 -16.195312 23.507812 -13.613281 Z M 23.507812 -13.613281 "/></g></g></g></svg>